<?xml version="1.0" encoding="utf-8"?>
<!-- Generator: Adobe Illustrator 19.2.0, SVG Export Plug-In . SVG Version: 6.00 Build 0)  -->
<svg version="1.1" id="Layer_1" xmlns="http://www.w3.org/2000/svg" xmlns:xlink="http://www.w3.org/1999/xlink" x="0px" y="0px"
	 viewBox="0 0 326.5 355.7" style="enable-background:new 0 0 326.5 355.7;" xml:space="preserve">
<style type="text/css">
	.st0{fill:#6495ED;}
	.st1{fill:#A9A9A9;}
	.st2{fill:#FC4444;}
	.st3{fill:#FF0000;}
	.st4{fill:#27E469;}
	.st5{fill:#008000;}
	.st6{fill:#FFA500;}
	.st7{fill:#00008B;}
	.st8{fill:#FFFFFF;}
	.st9{font-family:'CoconNextArabic-Light';}
	.st10{font-size:31px;}
</style>
<path class="st0" d="M140.8,166H12c-6.6,0-12-5.4-12-12v-48.7c0-6.6,5.4-12,12-12h128.8c6.6,0,12,5.4,12,12V154
	C152.8,160.6,147.4,166,140.8,166z"/>
<path class="st1" d="M140.8,260.8H12c-6.6,0-12-5.4-12-12v-48.7c0-6.6,5.4-12,12-12h128.8c6.6,0,12,5.4,12,12v48.7
	C152.8,255.4,147.4,260.8,140.8,260.8z"/>
<path class="st2" d="M140.8,355.7H12c-6.6,0-12-5.4-12-12v-48.7c0-6.6,5.4-12,12-12h128.8c6.6,0,12,5.4,12,12v48.7
	C152.8,350.3,147.4,355.7,140.8,355.7z"/>
<path class="st3" d="M314.5,355.7H175.1c-6.6,0-12-5.4-12-12v-48.8c0-6.6,5.4-12,12-12h139.4c6.6,0,12,5.4,12,12v48.8
	C326.5,350.3,321.1,355.7,314.5,355.7z"/>
<path class="st4" d="M314.5,260.7H175.1c-6.6,0-12-5.4-12-12v-48.8c0-6.6,5.4-12,12-12h139.4c6.6,0,12,5.4,12,12v48.8
	C326.5,255.3,321.1,260.7,314.5,260.7z"/>
<path class="st5" d="M314.5,165.6H175.1c-6.6,0-12-5.4-12-12v-48.8c0-6.6,5.4-12,12-12h139.4c6.6,0,12,5.4,12,12v48.8
	C326.5,160.2,321.1,165.6,314.5,165.6z"/>
<path class="st6" d="M314.5,73.4H175.1c-6.6,0-12-5.4-12-12V12.6c0-6.6,5.4-12,12-12h139.4c6.6,0,12,5.4,12,12v48.8
	C326.5,68,321.1,73.4,314.5,73.4z"/>
<path class="st7" d="M140.8,73.9H12c-6.6,0-12-5.4-12-12V13.3c0-6.6,5.4-12,12-12h128.8c6.6,0,12,5.4,12,12v48.7
	C152.8,68.5,147.4,73.9,140.8,73.9z"/>
<text transform="matrix(1 0 0 1 191.4382 327.0083)" class="st8 st9 st10">تاء التأنيث</text>
<text transform="matrix(1 0 0 1 45.9708 44.7473)" class="st8 st9 st10">ضمير</text>
<text transform="matrix(1 0 0 1 45.9706 136.706)" class="st8 st9 st10">اسم</text>
<text transform="matrix(1 0 0 1 15.8163 232.624)" class="st8 st9 st10">فعل متعد</text>
<text transform="matrix(1 0 0 1 15.8165 327.0088)" class="st8 st9 st10">ال التعريف</text>
<text transform="matrix(1 0 0 1 214.715 232.6238)" class="st8 st9 st10">صفة</text>
<text transform="matrix(1 0 0 1 191.4383 136.7058)" class="st8 st9 st10">أداة نفي</text>
<text transform="matrix(1 0 0 1 181.9409 44.7471)" class="st8 st9 st10">حرف ملحق</text>
</svg>
